<?xml version="1.0" encoding="utf-8"?>
<!-- Generator: Adobe Illustrator 16.0.4, SVG Export Plug-In . SVG Version: 6.00 Build 0)  -->
<!DOCTYPE svg PUBLIC "-//W3C//DTD SVG 1.1//EN" "http://www.w3.org/Graphics/SVG/1.1/DTD/svg11.dtd">
<svg version="1.1" id="Layer_1" xmlns="http://www.w3.org/2000/svg" xmlns:xlink="http://www.w3.org/1999/xlink" x="0px" y="0px"
	 width="500.0px" height="500.0px" viewBox="0 0 500 500" enable-background="new 0 0 500 500"
	 xml:space="preserve">

<g transform="translate(250 250)">
	<!-- torso -->
	 <g transform="rotate(10)">
        <g transform="scale(.9 1.1)">
            <polygon fill="#3A86FF"
                     points="-50,-50 50,-50 -50,50"/>
            <polygon fill="#3A86FF"
                     points="-50,50 50,-50 50,50"/>
        </g>
    </g>

	<!-- head -->
	<g transform="translate(10 -98)">
        <g transform="rotate(10)">
            <g transform="scale(.5 .5)">
                <polygon fill="#FFD166"
                         points="-50,-50 50,-50 -50,50"/>
                <polygon fill="#FFD166"
                         points="-50,50 50,-50 50,50"/>
            </g>
        </g>
    </g>

	<!-- left leg -->
	<g transform="translate(-25 50)">

        <g transform="rotate(35)">
            <g transform="translate(0 35)">
                <g transform="scale(.22 .7)">
                    <polygon fill="#06D6A0"
                             points="-50,-50 50,-50 -50,50"/>
                    <polygon fill="#06D6A0"
                             points="-50,50 50,-50 50,50"/>
                </g>
            </g>


            <g transform="translate(0 70)">

                <g transform="rotate(50)">
                    <g transform="translate(0 35)">
                        <g transform="scale(.22 .7)">
                            <polygon fill="#118AB2"
                                     points="-50,-50 50,-50 -50,50"/>
                            <polygon fill="#118AB2"
                                     points="-50,50 50,-50 50,50"/>
                        </g>
                    </g>


                    <g transform="translate(15 75)">
                        <g transform="scale(.4 .15)">
                            <polygon fill="#073B4C"
                                     points="-50,-50 50,-50 -50,50"/>
                            <polygon fill="#073B4C"
                                     points="-50,50 50,-50 50,50"/>
                        </g>
                    </g>

                </g>
            </g>

        </g>
    </g>

	<!-- right leg -->
	<g transform="translate(15 50)">

        <g transform="rotate(-50)">
            <g transform="translate(0 35)">
                <g transform="scale(.22 .7)">
                    <polygon fill="#06D6A0"
                             points="-50,-50 50,-50 -50,50"/>
                    <polygon fill="#06D6A0"
                             points="-50,50 50,-50 50,50"/>
                </g>
            </g>


            <g transform="translate(0 70)">
                <g transform="rotate(75)">

                    <g transform="translate(0 35)">
                        <g transform="scale(.22 .7)">
                            <polygon fill="#118AB2"
                                     points="-50,-50 50,-50 -50,50"/>
                            <polygon fill="#118AB2"
                                     points="-50,50 50,-50 50,50"/>
                        </g>
                    </g>


                    <g transform="translate(15 75)">
                        <g transform="scale(.4 .15)">
                            <polygon fill="#073B4C"
                                     points="-50,-50 50,-50 -50,50"/>
                            <polygon fill="#073B4C"
                                     points="-50,50 50,-50 50,50"/>
                        </g>
                    </g>

                </g>
            </g>

        </g>
    </g>


	<!--right arm-->
	<g transform="translate(55 -30)">

        <g transform="rotate(45)">

            <g transform="translate(30 0)">
                <g transform="scale(.6 .2)">
                    <polygon fill="#8338EC"
                             points="-50,-50 50,-50 -50,50"/>
                    <polygon fill="#8338EC"
                             points="-50,50 50,-50 50,50"/>
                </g>
            </g>


            <g transform="translate(60 0)">

                <g transform="rotate(-100)">

                    <g transform="translate(30 0)">
                        <g transform="scale(.6 .2)">
                            <polygon fill="#FF006E"
                                     points="-50,-50 50,-50 -50,50"/>
                            <polygon fill="#FF006E"
                                     points="-50,50 50,-50 50,50"/>
                        </g>
                    </g>

                </g>
            </g>

        </g>
    </g>


	<!-- left arm -->
	<g transform="translate(-55 -30)">

        <g transform="rotate(-140)">

            <g transform="translate(30 0)">
                <g transform="scale(.6 .2)">
                    <polygon fill="#8338EC"
                             points="-50,-50 50,-50 -50,50"/>
                    <polygon fill="#8338EC"
                             points="-50,50 50,-50 50,50"/>
                </g>
            </g>


            <g transform="translate(60 0)">

                <g transform="rotate(-80)">
                    <g transform="translate(30 0)">
                        <g transform="scale(.6 .2)">
                            <polygon fill="#FF006E"
                                     points="-50,-50 50,-50 -50,50"/>
                            <polygon fill="#FF006E"
                                     points="-50,50 50,-50 50,50"/>
                        </g>
                    </g>

                </g>
            </g>

        </g>
    </g>

</g>


</svg>
